<svg xmlns="http://www.w3.org/2000/svg" width="1200" height="630" viewBox="0 0 1200 630" role="img" aria-labelledby="title desc">
  <title id="title">Gemma 4 local AI in Android Studio Quail 4</title>
  <desc id="desc">Editorial technology graphic of a dark IDE workspace with a local model chip, offline agent panel, and Android device silhouette.</desc>
  <defs>
    <linearGradient id="bg" x1="0" y1="0" x2="1" y2="1">
      <stop offset="0%" stop-color="#07111f"/>
      <stop offset="55%" stop-color="#10283a"/>
      <stop offset="100%" stop-color="#0a1f18"/>
    </linearGradient>
    <linearGradient id="panel" x1="0" y1="0" x2="0" y2="1">
      <stop offset="0%" stop-color="#ffffff" stop-opacity="0.14"/>
      <stop offset="100%" stop-color="#ffffff" stop-opacity="0.05"/>
    </linearGradient>
    <linearGradient id="accent" x1="0" y1="0" x2="1" y2="0">
      <stop offset="0%" stop-color="#34d399"/>
      <stop offset="100%" stop-color="#38bdf8"/>
    </linearGradient>
    <filter id="glow" x="-20%" y="-20%" width="140%" height="140%">
      <feGaussianBlur stdDeviation="12" result="b"/>
      <feMerge><feMergeNode in="b"/><feMergeNode in="SourceGraphic"/></feMerge>
    </filter>
  </defs>
  <rect width="1200" height="630" fill="url(#bg)"/>
  <circle cx="1040" cy="90" r="160" fill="#34d399" opacity="0.08"/>
  <circle cx="160" cy="540" r="180" fill="#38bdf8" opacity="0.07"/>
  <rect x="70" y="80" width="720" height="470" rx="18" fill="url(#panel)" stroke="#ffffff" stroke-opacity="0.12"/>
  <rect x="90" y="104" width="680" height="36" rx="8" fill="#0b1624" opacity="0.7"/>
  <circle cx="112" cy="122" r="6" fill="#f87171"/>
  <circle cx="132" cy="122" r="6" fill="#fbbf24"/>
  <circle cx="152" cy="122" r="6" fill="#34d399"/>
  <rect x="180" y="114" width="220" height="16" rx="4" fill="#94a3b8" opacity="0.35"/>
  <rect x="90" y="156" width="250" height="370" rx="10" fill="#071018" opacity="0.55"/>
  <rect x="108" y="176" width="160" height="10" rx="3" fill="#34d399" opacity="0.85"/>
  <rect x="108" y="204" width="200" height="8" rx="3" fill="#64748b"/>
  <rect x="108" y="224" width="180" height="8" rx="3" fill="#64748b"/>
  <rect x="108" y="244" width="190" height="8" rx="3" fill="#38bdf8" opacity="0.7"/>
  <rect x="108" y="276" width="140" height="8" rx="3" fill="#64748b"/>
  <rect x="108" y="296" width="170" height="8" rx="3" fill="#64748b"/>
  <rect x="356" y="156" width="394" height="250" rx="10" fill="#071018" opacity="0.55"/>
  <rect x="376" y="176" width="120" height="10" rx="3" fill="#38bdf8"/>
  <rect x="376" y="204" width="340" height="8" rx="3" fill="#94a3b8" opacity="0.45"/>
  <rect x="376" y="222" width="300" height="8" rx="3" fill="#94a3b8" opacity="0.35"/>
  <rect x="376" y="240" width="320" height="8" rx="3" fill="#34d399" opacity="0.55"/>
  <rect x="376" y="258" width="260" height="8" rx="3" fill="#94a3b8" opacity="0.35"/>
  <rect x="376" y="290" width="200" height="28" rx="6" fill="url(#accent)" opacity="0.9"/>
  <rect x="356" y="422" width="394" height="104" rx="10" fill="#071018" opacity="0.55"/>
  <rect x="376" y="444" width="90" height="10" rx="3" fill="#fbbf24"/>
  <rect x="376" y="468" width="350" height="8" rx="3" fill="#64748b"/>
  <rect x="376" y="488" width="280" height="8" rx="3" fill="#64748b"/>
  <g filter="url(#glow)" transform="translate(860,150)">
    <rect x="0" y="0" width="250" height="330" rx="28" fill="#0b1220" stroke="#34d399" stroke-width="3"/>
    <rect x="22" y="28" width="206" height="220" rx="16" fill="#102033"/>
    <circle cx="125" cy="138" r="46" fill="none" stroke="#38bdf8" stroke-width="4"/>
    <circle cx="125" cy="138" r="22" fill="#34d399"/>
    <rect x="70" y="270" width="110" height="10" rx="5" fill="#64748b"/>
    <rect x="88" y="292" width="74" height="8" rx="4" fill="#334155"/>
  </g>
</svg>
