<svg xmlns="http://www.w3.org/2000/svg" viewBox="0 0 1200 630" role="img" aria-label="Samsung Gallery syncing with Google Photos">
  <defs>
    <linearGradient id="bg" x1="0" y1="0" x2="1" y2="1">
      <stop offset="0%" stop-color="#0b1220"/>
      <stop offset="100%" stop-color="#1a2744"/>
    </linearGradient>
  </defs>
  <rect width="1200" height="630" fill="url(#bg)"/>
  <rect x="80" y="90" width="420" height="450" rx="36" fill="#111827" stroke="#334155" stroke-width="8"/>
  <rect x="110" y="140" width="360" height="280" rx="12" fill="#1e293b"/>
  <rect x="126" y="156" width="160" height="120" rx="8" fill="#38bdf8"/>
  <rect x="304" y="156" width="150" height="120" rx="8" fill="#818cf8"/>
  <rect x="126" y="288" width="150" height="112" rx="8" fill="#34d399"/>
  <rect x="294" y="288" width="160" height="112" rx="8" fill="#fbbf24"/>
  <rect x="150" y="440" width="280" height="18" rx="9" fill="#475569"/>
  <circle cx="720" cy="315" r="70" fill="#2563eb"/>
  <path d="M690 315h60M720 285v60" stroke="#fff" stroke-width="10" stroke-linecap="round"/>
  <rect x="850" y="160" width="270" height="310" rx="24" fill="#f8fafc"/>
  <circle cx="985" cy="250" r="48" fill="#4285F4"/>
  <circle cx="1010" cy="275" r="48" fill="#34A853" opacity="0.9"/>
  <circle cx="960" cy="275" r="48" fill="#FBBC05" opacity="0.9"/>
  <circle cx="985" cy="300" r="48" fill="#EA4335" opacity="0.85"/>
  <rect x="890" y="370" width="190" height="16" rx="8" fill="#cbd5e1"/>
  <rect x="910" y="400" width="150" height="16" rx="8" fill="#e2e8f0"/>
</svg>
